HIERARCHY
ROOT Hips
{
	OFFSET 0.000000 0.000000 0.000000
	CHANNELS 6 Xposition Yposition Zposition Zrotation Yrotation Xrotation 
	JOINT LHipJoint
	{
		OFFSET 0.000000 0.000000 0.000000
		CHANNELS 3 Zrotation Yrotation Xrotation
		JOINT LeftUpLeg
		{
			OFFSET 1.363060 -1.794630 0.839290
			CHANNELS 3 Zrotation Yrotation Xrotation
			JOINT LeftLeg
			{
				OFFSET 2.448110 -6.726130 0.000000
				CHANNELS 3 Zrotation Yrotation Xrotation
				JOINT LeftFoot
				{
					OFFSET 2.562200 -7.039590 0.000000
					CHANNELS 3 Zrotation Yrotation Xrotation
					JOINT LeftToeBase
					{
						OFFSET 0.157640 -0.433110 2.322550
						CHANNELS 3 Zrotation Yrotation Xrotation
						End Site
						{
							OFFSET 0.000000 0.000000 0.000000
						}
					}
				}
			}
		}
	}
	JOINT RHipJoint
	{
		OFFSET 0.000000 0.000000 0.000000
		CHANNELS 3 Zrotation Yrotation Xrotation
		JOINT RightUpLeg
		{
			OFFSET -1.305520 -1.794630 0.839290
			CHANNELS 3 Zrotation Yrotation Xrotation
			JOINT RightLeg
			{
				OFFSET -2.542530 -6.985550 0.000000
				CHANNELS 3 Zrotation Yrotation Xrotation
				JOINT RightFoot
				{
					OFFSET -2.568260 -7.056230 0.000000
					CHANNELS 3 Zrotation Yrotation Xrotation
					JOINT RightToeBase
					{
						OFFSET -0.164730 -0.452590 2.363150
						CHANNELS 3 Zrotation Yrotation Xrotation
						End Site
						{
							OFFSET 0.000000 0.000000 0.000000
						}
					}
				}
			}
		}
	}
}
MOTION
Frames: 16
Frame Time: 0.008333
4.123942 16.924368 -3.231232 124.170103 -77.754811 -142.373285 -6.848682 -4.407836 -0.562412 -26.553435 24.349560 -71.626821 -4.129838 -1.420571 -4.191176 0.192144 4.232378 12.320668 1.941600 0.000000 -54.948800 10.807168 -1.105004 -2.972884 1.865537 -8.484974 17.002598 0.956126 -1.716226 15.738305 -1.479676 -5.624144 -10.282484 0.114401 0.000000 -53.734300
4.118957 16.907749 -3.235291 123.674817 -77.798088 -142.113636 -7.042758 -4.201374 -0.741280 -26.083199 24.736786 -70.746355 -3.939287 -1.074314 -1.720438 0.339040 5.201906 13.288546 2.297900 -0.000000 -55.090500 10.777315 -1.131330 -2.908191 1.873147 -8.512776 17.144153 0.957275 -1.718508 15.917938 -1.504515 -5.691238 -10.594498 0.155400 -0.000000 -53.006600
4.114494 16.889004 -3.241153 122.851559 -77.917972 -141.597372 -7.221290 -3.988127 -0.977612 -25.832685 25.203823 -69.967829 -3.738450 -0.709525 1.028810 0.457135 5.883726 14.438803 2.576300 -0.000000 -54.404200 10.762657 -1.163609 -2.872327 1.840749 -8.644722 17.383584 0.959178 -1.726705 16.071765 -1.526034 -5.742106 -10.898525 0.196100 -0.000000 -52.341599
4.110164 16.869208 -3.248674 121.738617 -78.097573 -140.842353 -7.389930 -3.785875 -1.239094 -25.623604 25.712362 -69.114564 -3.517934 -0.365946 3.812604 0.563218 6.410045 15.610265 2.803800 0.000000 -52.884799 10.762296 -1.198711 -2.867508 1.768174 -8.870187 17.714230 0.960954 -1.739135 16.180724 -1.543156 -5.774797 -11.176241 0.233600 0.000000 -51.762100
4.105964 16.849580 -3.257767 120.355501 -78.328251 -139.840587 -7.553828 -3.605044 -1.493723 -25.322181 26.197467 -68.068417 -3.281489 -0.071771 6.457817 0.669790 6.908840 16.648185 3.014300 -0.000000 -50.840800 10.776384 -1.235815 -2.890776 1.661981 -9.177387 18.106580 0.962143 -1.753540 16.235394 -1.555874 -5.792567 -11.415835 0.265900 -0.000000 -51.270400
4.101596 16.831328 -3.268305 118.751583 -78.598190 -138.612248 -7.712430 -3.443481 -1.722201 -24.911190 26.629497 -66.836839 -3.043658 0.165006 8.915035 0.777050 7.423842 17.421272 3.214900 -0.000000 -48.721400 10.803855 -1.276873 -2.930676 1.537547 -9.541705 18.524407 0.962394 -1.767215 16.233343 -1.565580 -5.805572 -11.609079 0.292100 -0.000000 -50.880700
4.096964 16.815475 -3.280110 116.993427 -78.890693 -137.204387 -7.862907 -3.294295 -1.916445 -24.414340 27.004867 -65.470992 -2.816350 0.348904 11.197068 0.882764 7.980422 17.854131 3.408401 0.000000 -46.922501 10.843720 -1.323339 -2.974076 1.409068 -9.933561 18.935522 0.961339 -1.777889 16.178658 -1.573753 -5.822470 -11.755522 0.312299 -0.000000 -50.565300
4.091990 16.802611 -3.292878 115.183197 -79.182108 -135.708997 -8.001636 -3.148938 -2.077392 -23.875226 27.349438 -64.041871 -2.606719 0.491069 13.352888 0.984546 8.584386 17.921375 3.590000 -0.000000 -45.644400 10.893311 -1.375268 -3.008399 1.288721 -10.318462 19.318745 0.958391 -1.784059 16.078675 -1.581678 -5.849959 -11.856008 0.326800 0.000000 -50.312700
4.086608 16.793059 -3.306331 113.413885 -79.447599 -134.215488 -8.126658 -3.001306 -2.209313 -23.316514 27.686500 -62.584788 -2.416014 0.601690 15.409239 1.084451 9.264171 17.666256 3.768700 0.000001 -45.011800 10.952189 -1.431187 -3.025246 1.174633 -10.670235 19.659785 0.952689 -1.785234 15.945599 -1.589081 -5.884925 -11.916700 0.336500 -0.000000 -50.097901
4.080662 16.786739 -3.319947 111.819978 -79.662537 -132.860273 -8.238546 -2.846919 -2.320253 -22.761835 28.057186 -61.137498 -2.244110 0.691431 17.399807 1.183810 10.017096 17.150105 3.940300 -0.000001 -44.919299 11.015120 -1.488324 -3.019316 1.068892 -10.960954 19.957756 0.943984 -1.781533 15.789437 -1.596043 -5.925312 -11.943685 0.341901 -0.000000 -49.910600
4.074040 16.783277 -3.333147 110.513405 -79.810892 -131.759588 -8.341189 -2.684610 -2.417411 -22.212183 28.488027 -59.707726 -2.089195 0.767979 19.330478 1.285184 10.843964 16.463306 4.106900 -0.000000 -45.205300 11.076645 -1.543829 -2.989687 0.970156 -11.173270 20.216546 0.932711 -1.773706 15.620253 -1.602011 -5.964898 -11.945806 0.344000 0.000000 -49.738700
4.066838 16.782157 -3.345621 109.530739 -79.887103 -130.954019 -8.439486 -2.515206 -2.505310 -21.649664 28.973864 -58.264422 -1.948302 0.834742 21.165863 1.392110 11.761001 15.721383 4.284499 0.000000 -45.731600 11.136352 -1.595643 -2.939844 0.866659 -11.308496 20.438738 0.919135 -1.762951 15.447500 -1.605129 -5.991621 -11.930081 0.343200 0.000000 -49.584700
4.058618 16.782462 -3.356170 109.010644 -79.894932 -130.587292 -8.542027 -2.340807 -2.590146 -21.073996 29.553828 -56.852619 -1.822351 0.900635 22.951866 1.499460 12.687410 14.957159 4.441800 -0.000001 -46.061400 11.175318 -1.642327 -2.870184 0.794403 -11.345719 20.640451 0.907090 -1.749325 15.269832 -1.608410 -6.016323 -11.909262 0.341300 -0.000000 -49.410900
4.049735 16.783803 -3.365219 108.805083 -79.850825 -130.508379 -8.650508 -2.163423 -2.669553 -20.447601 30.157309 -55.388569 -1.707376 0.961708 24.595225 1.610577 13.662129 14.287927 4.616901 -0.000000 -46.200400 11.205849 -1.684307 -2.789934 0.723296 -11.324098 20.814617 0.896033 -1.733880 15.095075 -1.607766 -6.017880 -11.886480 0.338399 -0.000000 -49.246000
4.040089 16.785517 -3.372350 108.876022 -79.775933 -130.678572 -8.768170 -1.985158 -2.743585 -19.762734 30.766473 -53.878814 -1.603399 1.020432 26.100209 1.720343 14.628172 13.726426 4.795800 0.000000 -45.927300 11.222175 -1.722217 -2.703419 0.670797 -11.256952 20.965797 0.888337 -1.716275 14.920093 -1.604232 -6.000066 -11.868561 0.335500 -0.000000 -49.080400
4.029662 16.787219 -3.377587 109.124279 -79.695211 -130.994702 -8.895121 -1.807798 -2.810160 -19.014293 31.344189 -52.318785 -1.509763 1.076767 27.458489 1.824826 15.547699 13.272149 4.971301 0.000000 -45.181400 11.224443 -1.757457 -2.615679 0.644371 -11.169505 21.093250 0.885369 -1.696031 14.741568 -1.597991 -5.963720 -11.858976 0.333300 0.000000 -48.915800
